<svg xmlns="http://www.w3.org/2000/svg" viewBox="0 0 419.1 403.6">
  <path d="M282 0h-3c-36 6-55 44-58 78-4 30 9 69 42 76 5 1 10 0 15-1 40-14 58-61 52-100-2-26-21-53-48-53zM130 2c-22 0-40 23-43 44-8 42 11 94 55 108h13c29-5 42-38 41-65-1-35-20-76-56-86l-10-1zm249 119c-39 2-65 41-69 77-5 26 9 60 38 62 42 0 70-44 71-82 2-25-12-55-40-57zm-337 9c-17 0-33 9-38 26-15 45 14 101 61 110 20 4 37-11 42-30 11-39-11-84-47-101-6-4-12-5-18-5zm172 80c-32 0-64 16-85 40-23 29-41 61-48 97-9 26 11 55 38 56 33 1 62-22 95-24 27-4 52 10 77 20 22 9 51 6 62-17 9-24-4-49-14-70-22-33-44-69-79-90-14-9-30-12-46-12z"/>
</svg>
