<svg xmlns="http://www.w3.org/2000/svg" viewBox="0 0 48 48">
  <path fill="#fa0" d="M9.4 20.3l1.7 6v.2l.1.2 2.3 5.9c2.1 5 7.4 7.2 11 5l.6-.3c.8-.7 1.4-1.8 2-2.6 1-1.1-3.5-6.4-4.8-5.1-.4.5-1.6 2.1-2.2 2.4-.6.3-1.3-.3-1.5-1-.8-1.8-1.4-4.1-2-6v-.2l-.1-.2c-.7-1.9-1.6-4.2-2-6-.2-.7 0-1.6.6-1.7.6-.2 2.6.5 3.3.6 1.8.3 2.2-6.7.8-7-1-.3-2.1-.8-3.2-.8h-.6c-4.3.4-7.3 5.3-6 10.6zm26 10l-2-1c3.3-6.6.6-14.8-6-18.1l1-2c7.8 3.9 10.9 13.4 7 21.1zm-8.8-17.6l-1 2a9.6 9.6 0 014.2 12.8l2 1c3-5.8.6-13-5.2-15.8zm-1.8 3.6l-1 2a5.5 5.5 0 012.4 7.4l2 1c2-3.8.4-8.5-3.4-10.4z"/>
</svg>
