<svg xmlns="http://www.w3.org/2000/svg" fill-rule="evenodd" viewBox="0 0 48 48">
  <path fill-rule="nonzero" d="M41.1 19.8l-.1.7c-.5 1.2-1.5 2.2-2.1 3.3-1 1.4-8.5-1.6-7.5-3.5.4-.7 1.8-2.7 2-3.4 0-.7-.9-1.3-1.7-1.3-2.3-.2-5.1 0-7.5 0H24h-.2c-2.4 0-5.2-.2-7.4 0-.9 0-1.8.6-1.7 1.3 0 .7 1.5 2.7 1.9 3.4 1 1.9-6.6 5-7.5 3.5-.6-1.1-1.6-2.1-2-3.3-.2-.2-.2-.4-.2-.7-1.1-4.9 3.2-10 9.6-10.4l7.3-.4h.4c2.5 0 4.9.2 7.3.4 6.5.5 10.7 5.5 9.6 10.4zm-4.4 17C36.7 38 36 39 35 39H13c-1 0-1.8-1-1.7-2.1l.6-10.8c2.4-.6 5.3-2 6.4-3.8.6-1 .7-2 .2-3l-.6-1h11.9c-.2.3-.2.6-.2.8l-.1.2a3 3 0 00.2 3c1 1.8 4 3.2 6.4 3.8l.6 10.8zm-8.5-11.1a6 6 0 10-.7 8.9L26.1 33a3.9 3.9 0 111.3-1.3l1.4 1.5a5.9 5.9 0 00-.6-7.6z"/>
</svg>
