<svg xmlns="http://www.w3.org/2000/svg" viewBox="0 0 960 960">
  <path fill="#994d00" d="M490 477c-67 8-129 51-166 107-41 68-70 141-75 219-12 58 38 115 94 110 69-6 123-63 191-75 55-16 111 8 165 23 48 13 108-1 125-53 12-53-22-103-48-145-54-65-109-136-188-172-31-16-65-18-98-14zM111 350c-35 5-66 28-72 66-19 99 56 212 156 219 42 3 74-33 79-75 13-86-45-176-124-203-14-7-26-8-39-7zm698-105c-81 14-124 104-123 182-4 57 34 126 95 122 87-10 134-111 126-193-2-53-39-114-98-111zM260 55c-45 6-77 59-77 105-6 91 47 197 142 216l27-3c59-18 78-92 68-149-11-75-61-157-139-170l-21 1zm316-43l-7 1c-73 22-102 107-100 181 0 65 37 145 108 151 10 1 20-2 31-6 79-40 104-145 81-226C678 58 632 5 576 12z"/>
</svg>
