<svg version="1" xmlns="http://www.w3.org/2000/svg" width="933.333" height="933.333" viewBox="0 0 700 700"><path d="M411.8 29.9c-12 3.9-26.5 13.5-35.3 23.3-14.5 16.1-24.5 37.5-29.7 63.1-3.1 15.1-3.3 51.4-.5 64.6 10.2 47.2 37.2 78.1 72.7 83.1 17.3 2.5 36.4-6.3 54.1-24.7 22.1-23.1 34-52.9 35.6-89.3 1.5-37-8.7-72.1-27.5-94.2-10-11.8-21.3-19.9-34.4-24.5-10-3.6-26.5-4.2-35-1.4zM185.1 67.5c-18.2 5.1-35.1 21.8-43.1 42.7-5.4 14-6.2 20-5.7 41.3.3 16.1.8 20.8 3.1 30.9 8.6 37.3 27.9 69.1 53.7 88.6 13.9 10.4 39 21 49.8 21 8-.1 21.3-3 27.7-6.1 8.2-4.1 19.9-14.9 25.3-23.3 23.9-37.9 18.8-96.8-12.5-143.8-7.1-10.6-20.2-25.1-28.7-31.7-9.3-7.1-21.5-13.8-31.5-17.2-8.3-2.7-11.4-3.3-21.2-3.6-8.1-.2-13.1.2-16.9 1.2zM581.8 190.8c-37.3 12.5-64.5 47.6-73.9 95.4-3.1 15.3-3.3 43.3-.5 55.3 6.6 28.9 25.1 52.2 47.5 59.8 8 2.7 20 3.3 28.5 1.3 42.4-10 73.6-49.9 80.7-103.1 1.8-14 .6-38.6-2.5-51-5.7-22.1-17.3-39.8-33.1-50.3-9.6-6.5-17.7-9.2-29-9.8-8-.4-10-.1-17.7 2.4zM88.5 279.1c-15 2.2-28.5 8.8-37.9 18.4-12.1 12.3-15.8 23.5-15.9 48 0 17.9 1.1 25.1 6.9 42.5 17.6 52.8 67.5 91.6 115.6 89.8 10.2-.4 11.2-.7 19.1-4.6 23.4-11.6 35-35.4 33.3-68.7-1.6-33.8-15.1-63.2-40.5-88.6-15.6-15.5-29.9-24.7-48.8-31.4-3.7-1.3-8.6-3-10.8-3.8-5.6-2-13.9-2.7-21-1.6zM366.3 359.1c-10.1 1.5-24.6 5.5-35.5 9.9-22.7 9-41.4 21.6-60.4 40.5-16.3 16.2-25.4 29.7-39.4 58-23.2 47-33.4 84.7-35.6 130.6-.8 17.4.6 25.7 6.6 37.7 12.1 24.2 40.3 39.3 66.1 35.3 19.8-3 36.5-10 71.4-29.6 27.3-15.4 42.9-22.3 60.7-27 17.5-4.6 31.2-6 46.1-4.6 15.5 1.5 23.7 3.1 54.1 10.7 31 7.8 40.6 9.1 54.7 7.5 19-2.1 33.9-9 44.6-20.5 10.9-11.6 15-23.5 13.9-40.1-1.3-20.9-8.5-38-29.4-70-8.5-13-23.9-30.7-52.2-59.9-42.9-44.2-86.2-71.6-123.7-78.1-9.3-1.6-31.8-1.8-42-.4z"/></svg>